<svg version="1.1" xmlns="http://www.w3.org/2000/svg" xmlns:xlink="http://www.w3.org/1999/xlink" width="154.77253" height="535.11497" viewBox="0,0,154.77253,535.11497"><g transform="translate(-121.00382,88.04942)"><g data-paper-data="{&quot;isPaintingLayer&quot;:true}" fill-rule="nonzero" stroke-linejoin="miter" stroke-miterlimit="10" stroke-dasharray="" stroke-dashoffset="0" style="mix-blend-mode: normal"><path d="M123.89124,444.94915v-515.37927l112.09263,-0.38965c0,0 -15.69431,14.22028 -16.5166,24.35535c-1.29507,15.96223 9.49788,62.15295 9.49788,62.15295l10.22833,23.45244l-13.01375,29.05321l11.14688,12.02135l9.01637,7.20322c0,0 -2.04206,3.52326 -2.03656,5.2925c0.03551,11.42561 -1.6121,27.22949 -1.96764,38.36127c-0.14476,4.53221 -9.2964,6.07902 -9.45223,9.6843c-0.22357,5.17259 8.54423,11.75992 8.31135,13.57377c-1.27996,9.96963 -2.58023,23.35693 -2.58023,36.6015c0,8.85942 5.04227,18.46266 5.04227,28.29281c0,3.26421 -4.24612,9.27755 -4.24612,15.4843c0,8.79664 4.24612,17.98176 4.24612,20.27969c0,7.48328 -2.79149,27.25792 -2.79149,27.25792c0,0 -5.51731,6.15425 -5.51731,10.67359c0,33.66656 8.30881,88.82888 8.30881,123.18709c0,4.07685 -4.98004,4.02284 -4.98004,7.3863c0,10.89332 4.98004,21.45538 4.98004,21.45538z" fill="#888888" stroke="none" stroke-width="0" stroke-linecap="butt"/><path d="M192.26453,117.93775l15.66667,-5l30.33333,-11.33334l9.66667,7.66666l2.33333,15.66667l-16.66666,16.66667" fill="#888888" stroke="#7d7d7d" stroke-width="4.5" stroke-linecap="round"/><path d="M230.18456,136.11341l17.70137,24.56516l-7.94756,34.05401l9.03131,11.56008l-6.14129,15.89511l-1.54919,21.04155l7.32923,14.72244l-7.22505,23.12016" fill="#888888" stroke="#7d7d7d" stroke-width="4.5" stroke-linecap="round"/><path d="M221.51451,330.65977l19.51504,-16.33221l1.13113,9.04902l15.83578,20.3603l-11.87684,25.45037l7.91789,4.52451l11.87683,-2.82782l7.35233,19.22917l-20.71262,31.99142l-13.48346,5.07353l3.65564,16.09804" fill="#888888" stroke="#7d7d7d" stroke-width="4.5" stroke-linecap="round"/><path d="M203.81313,294.4889l-14.08885,-24.20392l-6.8638,-12.64383l1.80626,-12.28259l11.92133,-7.22504l13.36634,-12.28258l4.69628,9.39257l16.97887,11.56007" fill="#888888" stroke="#7d7d7d" stroke-width="4.5" stroke-linecap="round"/><path d="M205.61938,323.75037l-27.81643,-1.80626l-17.34012,20.95264l-25.28767,-43.71155l6.50254,-6.14129l2.16751,-22.75891l15.53386,8.67006l28.17769,-11.19883" fill="#888888" stroke="#7d7d7d" stroke-width="4.5" stroke-linecap="round"/><path d="M148.18024,322.66659l-23.12016,26.37143" fill="#888888" stroke="#7d7d7d" stroke-width="4.5" stroke-linecap="round"/><path d="M123.97633,265.58871l10.11507,-7.94756l9.03131,15.1726" fill="#888888" stroke="#7d7d7d" stroke-width="4.5" stroke-linecap="round"/><path d="M124.69883,240.6623l32.15147,-11.19883l-2.16751,-14.08885l11.19882,-12.28258l28.9002,36.12524" fill="#888888" stroke="#7d7d7d" stroke-width="4.5" stroke-linecap="round"/><path d="M123.97633,193.2147l21.31389,-17.70137l9.39257,11.19883l18.78513,-10.83757l12.64384,-19.14638l22.75891,16.61761l-9.40479,26.37651l10.12729,26.7276" fill="#888888" stroke="#7d7d7d" stroke-width="4.5" stroke-linecap="round"/><path d="M241.38338,152.39318l-32.51272,21.31389" fill="#888888" stroke="#7d7d7d" stroke-width="4.5" stroke-linecap="round"/><path d="M200.9231,200.43975l22.39765,-13.00508l24.20392,18.78512" fill="#888888" stroke="#7d7d7d" stroke-width="4.5" stroke-linecap="round"/><path d="M124.9312,128.27107l11.33333,14l14.66667,-8l7.33333,10l12.31336,1.98082l-4.69628,5.78003l-14.81135,9.75382l12.28259,19.50763" fill="#888888" stroke="#7d7d7d" stroke-width="4.5" stroke-linecap="round"/><path d="M250.68964,421.97034l-40.37397,-18.33757l-10.11507,-35.76399l8.67006,-9.03131l-20.23014,-36.84775" fill="#888888" stroke="#7d7d7d" stroke-width="4.5" stroke-linecap="round"/><path d="M201.6456,379.0676l-24.20391,-1.08375l-17.34012,-35.04149" fill="#888888" stroke="#7d7d7d" stroke-width="4.5" stroke-linecap="round"/><path d="M178.1642,377.26135l-17.34012,30.70646l-11.56008,2.89002l-10.83757,-16.61761l-15.17261,23.84266" fill="#888888" stroke="#7d7d7d" stroke-width="4.5" stroke-linecap="round"/><path d="M124.33758,382.68013l9.39257,-23.48141l12.28258,18.42388l18.06262,-25.28767" fill="#888888" stroke="#7d7d7d" stroke-width="4.5" stroke-linecap="round"/><path d="M164.4366,401.10401l23.12016,6.8638l-13.36634,21.67514l14.4501,15.1726" fill="#888888" stroke="#7d7d7d" stroke-width="4.5" stroke-linecap="round"/><path d="M204.90407,294.31493l-2.89898,-12.01008l10.76766,-8.69695l30.23227,7.04039l-7.45453,14.08078l12.01008,9.93938l-22.77773,34.37367l-27.33328,-22.77773z" fill="#888888" stroke="#7d7d7d" stroke-width="4.5" stroke-linecap="round"/><path d="M173.25901,429.37087l27,-10.5l22,9l16,-6l0.7,3.9" fill="#888888" stroke="#7d7d7d" stroke-width="4.5" stroke-linecap="round"/><path d="M153.59787,137.93774l19.66666,-19.33333l24.66667,0.33333l3.66667,12l24.66666,29.66667" fill="#888888" stroke="#7d7d7d" stroke-width="4.5" stroke-linecap="round"/><path d="M207.93121,137.27107l22,-0.66667" fill="#888888" stroke="#7d7d7d" stroke-width="4.5" stroke-linecap="round"/><path d="M186.59788,117.60439l-3,-14.66666l1,-6l34.33333,-3.66667l13,10" fill="#888888" stroke="#7d7d7d" stroke-width="4.5" stroke-linecap="round"/><path d="M162.59788,126.93777l-8.66667,-36.66667l17,-22.66667l24,11.33333l30.33333,-11.33334l8.66667,10l13,8.66666l-4,18.33333" fill="#888888" stroke="#7d7d7d" stroke-width="4.5" stroke-linecap="round"/><path d="M182.93121,104.27107l-18.33333,-17.66666l6.66666,-17" fill="#888888" stroke="#7d7d7d" stroke-width="4.5" stroke-linecap="round"/><path d="M124.26454,105.60442l13.66667,-9.33334l18.33333,9.33333" fill="#888888" stroke="#7d7d7d" stroke-width="4.5" stroke-linecap="round"/><path d="M124.26454,91.32663l19,-27l18,13.66666" fill="#888888" stroke="#7d7d7d" stroke-width="4.5" stroke-linecap="round"/><path d="M192.26453,117.93775l15.66667,-5l30.33333,-11.33334l9.66667,7.66666l2.33333,15.66667l-16.66666,16.66667" fill="#888888" stroke="#2d2d2d" stroke-width="2.5" stroke-linecap="round"/><path d="M230.18456,136.11341l17.70137,24.56516l-7.94756,34.05401l9.03131,11.56008l-6.14129,15.89511l-1.54919,21.04155l7.32923,14.72244l-7.22505,23.12016" fill="#888888" stroke="#2d2d2d" stroke-width="2.5" stroke-linecap="round"/><path d="M227.84784,335.9931l13.18171,-21.66554l1.13113,9.04902l15.83578,20.3603l-11.87684,25.45037l7.91789,4.52451l11.87683,-2.82782l7.35233,19.22917l-20.71262,31.99142l-13.48346,5.07353l3.65564,16.09804" fill="#888888" stroke="#2d2d2d" stroke-width="2.5" stroke-linecap="round"/><path d="M203.81313,294.4889l-14.08885,-24.20392l-6.8638,-12.64383l1.80626,-12.28259l11.92133,-7.22504l13.36634,-12.28258l4.69628,9.39257l16.97887,11.56007" fill="#888888" stroke="#2d2d2d" stroke-width="2.5" stroke-linecap="round"/><path d="M205.61938,323.75037l-27.81643,-1.80626l-17.34012,20.95264l-25.28767,-43.71155l6.50254,-6.14129l2.16751,-22.75891l15.53386,8.67006l28.17769,-11.19883" fill="#888888" stroke="#2d2d2d" stroke-width="2.5" stroke-linecap="round"/><path d="M148.18024,322.66659l-23.12016,26.37143" fill="#888888" stroke="#2d2d2d" stroke-width="2.5" stroke-linecap="round"/><path d="M123.97633,265.58871l10.11507,-7.94756l9.03131,15.1726" fill="#888888" stroke="#2d2d2d" stroke-width="2.5" stroke-linecap="round"/><path d="M124.69883,240.6623l32.15147,-11.19883l-2.16751,-14.08885l11.19882,-12.28258l28.9002,36.12524" fill="#888888" stroke="#2d2d2d" stroke-width="2.5" stroke-linecap="round"/><path d="M123.97633,193.2147l21.31389,-17.70137l9.39257,11.19883l18.78513,-10.83757l12.64384,-19.14638l22.75891,16.61761l-9.40479,26.37651l10.12729,26.7276" fill="none" stroke="#2d2d2d" stroke-width="2.5" stroke-linecap="round"/><path d="M208.87066,173.70707l32.51272,-21.31389" fill="#888888" stroke="#2d2d2d" stroke-width="2.5" stroke-linecap="round"/><path d="M200.9231,200.43975l22.39765,-13.00508l24.20392,18.78512" fill="#888888" stroke="#2d2d2d" stroke-width="2.5" stroke-linecap="round"/><path d="M124.9312,128.27107l11.33333,14l14.66667,-8l7.33333,10l12.31336,1.98082l-4.69628,5.78003l-14.81135,9.75382l12.28259,19.50763" fill="#888888" stroke="#2d2d2d" stroke-width="2.5" stroke-linecap="round"/><path d="M250.68964,421.97034l-40.37397,-18.33757l-10.11507,-35.76399l8.67006,-9.03131l-20.23014,-36.84775" fill="#888888" stroke="#2d2d2d" stroke-width="2.5" stroke-linecap="round"/><path d="M201.6456,379.0676l-24.20391,-1.08375l-17.34012,-35.04149" fill="#888888" stroke="#2d2d2d" stroke-width="2.5" stroke-linecap="round"/><path d="M178.1642,377.26135l-17.34012,30.70646l-11.56008,2.89002l-10.83757,-16.61761l-15.17261,23.84266" fill="#888888" stroke="#2d2d2d" stroke-width="2.5" stroke-linecap="round"/><path d="M124.33758,382.68013l9.39257,-23.48141l12.28258,18.42388l18.06262,-25.28767" fill="#888888" stroke="#2d2d2d" stroke-width="2.5" stroke-linecap="round"/><path d="M164.4366,401.10401l23.12016,6.8638l-13.36634,21.67514l14.4501,15.1726" fill="#888888" stroke="#2d2d2d" stroke-width="2.5" stroke-linecap="round"/><path d="M204.90407,294.31493l-2.89898,-12.01008l10.76766,-8.69695l30.23227,7.04039l-7.45453,14.08078l12.01008,9.93938l-22.77773,34.37367l-27.33328,-22.77773z" fill="#888888" stroke="#2d2d2d" stroke-width="2.5" stroke-linecap="round"/><path d="M173.25901,429.37087l27,-10.5l22,9l16,-6l0.7,3.9" fill="#888888" stroke="#2d2d2d" stroke-width="2.5" stroke-linecap="round"/><path d="M153.59787,137.93774l19.66666,-19.33333l24.66667,0.33333l3.66667,12l24.66666,29.66667" fill="#888888" stroke="#2d2d2d" stroke-width="2.5" stroke-linecap="round"/><path d="M229.93121,136.6044l-22,0.66667" fill="#888888" stroke="#2d2d2d" stroke-width="2.5" stroke-linecap="round"/><path d="M186.59788,117.60439l-3,-14.66666l1,-6l34.33333,-3.66667l13,10" fill="#888888" stroke="#2d2d2d" stroke-width="2.5" stroke-linecap="round"/><path d="M162.59788,126.93777l-8.66667,-36.66667l17,-22.66667l24,11.33333l30.33333,-11.33334l8.66667,10l13,8.66666l-4,18.33333" fill="none" stroke="#2d2d2d" stroke-width="2.5" stroke-linecap="round"/><path d="M182.93121,104.27107l-18.33333,-17.66666l6.66666,-17" fill="#888888" stroke="#2d2d2d" stroke-width="2.5" stroke-linecap="round"/><path d="M124.26454,105.60442l13.66667,-9.33334l18.33333,9.33333" fill="#888888" stroke="#2d2d2d" stroke-width="2.5" stroke-linecap="round"/><path d="M124.26454,91.32663l19,-27l18,13.66666" fill="#888888" stroke="#2d2d2d" stroke-width="2.5" stroke-linecap="round"/><path d="M227.38401,69.7099l11.5,-32l-10.5,-23l15,2.5l11.47465,-21.1674l17.65537,-16.70864l-21.63002,-21.12395l-14.72958,11.19793l0.64415,-11.29553l-17.16456,-2.73574l14.82156,-10.69334l9.79443,-12.16967l-8.5,-15.5l-20,4l-12.5,-7.66667l-13.5,5.5l-13,14l-30,-12.5l-17,8.5l-7,12" fill="#888888" stroke="#2d2d2d" stroke-width="2.5" stroke-linecap="round"/><path d="M150.75,70.34689l28.5,-46.5l-18.5,-6.5l-11.5,-14.5l-8,9.5l6.5,15.5l-22,15.5" fill="none" stroke="#2d2d2d" stroke-width="2.5" stroke-linecap="round"/><path d="M169.75,19.34689l9,-34.5l-15,-27l-17,11l-10,26l-13,-9.5" fill="none" stroke="#2d2d2d" stroke-width="2.5" stroke-linecap="round"/><path d="M177.75,-68.65311l-11,33" fill="none" stroke="#2d2d2d" stroke-width="2.5" stroke-linecap="round"/><path d="M146.75,-77.65311l-6,24l-18,15.5" fill="none" stroke="#2d2d2d" stroke-width="2.5" stroke-linecap="round"/><path d="M177.25,-16.15311l15,-12l-5,-24.5l7.5,-30" fill="none" stroke="#2d2d2d" stroke-width="2.5" stroke-linecap="round"/><path d="M189.25,-45.15311l16.5,16l29,-12" fill="none" stroke="#2d2d2d" stroke-width="2.5" stroke-linecap="round"/><path d="M209.25,-29.65311l-6.5,29l-11.5,12.5l-12.5,13" fill="none" stroke="#2d2d2d" stroke-width="2.5" stroke-linecap="round"/><path d="M233.25,54.84689l-16.5,-25.5l-0.5,-13.5l-29.5,3" fill="none" stroke="#2d2d2d" stroke-width="2.5" stroke-linecap="round"/></g></g></svg>