<svg version="1.1" xmlns="http://www.w3.org/2000/svg" xmlns:xlink="http://www.w3.org/1999/xlink" width="158.4985" height="112.66292" viewBox="0,0,158.4985,112.66292"><g transform="translate(-202.96045,-97.70085)"><g data-paper-data="{&quot;isPaintingLayer&quot;:true}" fill="#515151" fill-rule="nonzero" stroke="#000000" stroke-width="0.5" stroke-linecap="round" stroke-linejoin="miter" stroke-miterlimit="10" stroke-dasharray="" stroke-dashoffset="0" style="mix-blend-mode: normal"><path d="M346.85036,208.98677l-9.82563,0.52466l-3.58248,-18.32626l-8.91376,-27.95192l16.64429,-7.75213l8.82084,3.51185l-1.1611,7.89583l9.2053,-1.9526l3.11546,3.7804l-5.84362,9.65248z"/><path d="M283.80229,165.67772l-5.44645,1.28459l-24.02114,3.32062l19.38962,-22.89336l15.27859,-1.47951c0,0 3.40546,-1.42201 4.5139,-0.78346c1.15296,0.66419 2.27558,4.6947 2.27558,4.6947l1.9457,6.74484l-7.06081,6.11018z"/><path d="M288.73607,127.88588l-18.67686,6.49553l-28.26219,-9.38816l-6.87727,-7.59302l2.13786,-4.19797l-1.72005,-3.92949l10.2565,-1.823l4.77633,3.33245l7.81806,-5.11401l4.93788,-7.65183l7.10571,3.16549l16.48333,13.74397z"/><path d="M255.70552,144.18283l-14.21639,6.49552l-21.51252,-9.38816l-0.70534,-8.2194l3.59557,-9.32407l9.34817,-6.94921l9.40569,0.68131l12.54672,13.74397z"/><path d="M331.24922,167.98328l-26.47601,-8.60903l-13.22793,-18.35306l28.07574,-8.37851l10.0736,10.87183l25.72301,-0.61165z"/><path d="M319.02375,164.68373l-12.06924,-1.40565l-14.29889,-8.30411l1.07095,-10.04895l6.93538,-6.34277l27.76887,18.85819l-12.64282,-2.64739z"/><path d="M253.47674,210.00055l-28.72849,0.11275l-21.43237,-27.58848l14.36424,-10.48817l56.77297,23.4844z"/><path d="M243.42849,182.50873l-25.53643,-10.48818l-2.73605,-17.10029l16.64428,-7.75213l10.0736,10.87183l25.72301,-0.61166z"/><path d="M267.35281,156.95621l-25.08043,1.36802l-1.23337,-1.0916l13.5704,-20.9933l-8.6915,-5.07594l5.72544,-9.75656l10.50878,6.59754l11.12877,-0.23265l17.6085,-3.65933l5.94012,9.52275l4.25838,10.7169z"/><path d="M332.29805,187.23108l-7.3201,3.65657l-12.35181,-0.4744l-4.29857,-5.37079l-8.33141,-11.35471l-0.19866,-12.32259l16.64428,-7.75213l10.07361,10.87183l10.70632,-1.57334l9.06608,3.31061z"/><path d="M336.93093,209.55686l-25.39362,0.01126l-6.79813,-14.05447l3.60607,-10.56996l4.50486,5.58599l12.10288,0.36928l8.23101,-4.40152l11.10771,-1.15508l4.55142,6.79071l11.00345,-2.489z"/><path d="M240.84002,157.34788l-8.89215,-10.26017l-16.18828,7.52413l-7.75213,-5.24409l9.38959,-12.61257l8.40859,1.19374l9.56229,-6.36547l11.92034,15.7797z"/><path d="M267.52743,186.04615l0.81735,6.92202l-25.2739,-10.30317l14.37857,-14.907l9.95436,1.80899l-1.82326,5.94698l4.60782,6.27505z"/><path d="M319.79568,132.41406l-20.68198,6.58071l-2.40156,-5.99394l-5.47692,-8.73058l-15.37155,3.10506l8.0305,-14.23062l16.28695,-6.83211l3.53303,8.77846l13.11757,6.79123z"/></g></g></svg>