<svg version="1.1" xmlns="http://www.w3.org/2000/svg" xmlns:xlink="http://www.w3.org/1999/xlink" width="228.83552" height="162.22512" viewBox="0,0,228.83552,162.22512"><g transform="translate(-152.68126,-89.37884)"><g data-paper-data="{&quot;isPaintingLayer&quot;:true}" fill="#575757" fill-rule="nonzero" stroke-linejoin="miter" stroke-miterlimit="10" stroke-dasharray="" stroke-dashoffset="0" style="mix-blend-mode: normal"><path d="M152.74528,251.56785v-162.11626h228.77151v162.11626z" stroke="#000000" stroke-width="0" stroke-linecap="butt"/><path d="M164.13361,90.12149l8.37377,6.36407l-6.36407,7.36892l-1.33981,6.69902l-6.20119,4.32453l-5.18714,-4.99444v-19.76211z" stroke="#242424" stroke-width="1" stroke-linecap="round"/><path d="M190.92969,121.94183l-10.38348,14.06794l5.69417,12.05823l11.38833,-2.67961l12.39319,-16.4126l-10.71843,-11.05338z" stroke="#242424" stroke-width="1" stroke-linecap="round"/><path d="M161.42974,139.66997l1.3398,10.38348l-2.0097,11.05338l13.73299,-1.00485l-0.08175,-10.86454l4.43612,-12.91698l-11.72329,-3.68446z" stroke="#242424" stroke-width="1" stroke-linecap="round"/><path d="M173.79866,167.78159l-8.70873,9.71357l8.03882,4.35437l10.71844,-4.01942l9.29688,-10.86454l-3.60271,-9.90242l-9.71358,0.6699z" stroke="#242424" stroke-width="1" stroke-linecap="round"/><path d="M190.8569,179.14565l-4.01942,10.38348l8.03882,4.35437c0,0 6.92499,3.01355 8.87393,2.2827c1.07896,-0.40461 7.20372,-1.27786 7.20372,-1.27786l6.95222,-3.16067l-7.95708,-19.61599l-8.37377,-2.34466z" stroke="#242424" stroke-width="1" stroke-linecap="round"/><path d="M194.85205,101.74772l-4.01942,10.38348l8.03882,4.35437l10.71844,-4.01942l6.95222,-4.50047l2.09145,-14.59172l-13.06308,-1.00486z" stroke="#242424" stroke-width="1" stroke-linecap="round"/><path d="M336.17709,220.96599l1.67475,15.07279l7.70387,-3.01456l7.03397,-6.69902l8.29203,-5.17038l-1.25806,-11.24222l-13.39803,-1.3398z" stroke="#242424" stroke-width="1" stroke-linecap="round"/><path d="M153.2696,197.83012l-0.00001,14.73784l13.73299,-2.67962l3.21418,-8.03692l10.43706,-8.18683l-7.28717,-7.55776l-9.04367,3.01456z" stroke="#242424" stroke-width="1" stroke-linecap="round"/><path d="M202.81808,144.2137l-4.01941,10.38348l8.03882,4.35437l10.71844,-4.01941l6.95222,-4.50048l2.09145,-14.59172l-13.06308,-1.00485z" stroke="#242424" stroke-width="1" stroke-linecap="round"/><path d="M251.69665,240.65531l-3.68447,10.04853l19.76211,0.33495l5.61241,-4.16552l2.09145,-14.59172l-13.06308,-1.00486z" stroke="#242424" stroke-width="1" stroke-linecap="round"/><path d="M295.64802,130.52923l-4.01941,10.38348l8.03882,4.35437l10.71844,-4.01942l6.95222,-4.50047l-0.2532,-11.57717l-10.71843,-4.01941z" stroke="#242424" stroke-width="1" stroke-linecap="round"/><path d="M274.1869,105.38365l-4.01941,10.38348l8.03882,4.35437l10.71844,-4.01941l6.95222,-4.50047l2.09145,-14.59173l-13.06308,-1.00485z" stroke="#242424" stroke-width="1" stroke-linecap="round"/><path d="M263.4442,134.16516l-4.01942,10.38348l8.03882,4.35437l10.71844,-4.01942l6.95222,-4.50047l2.09146,-14.59172l-13.06308,-1.00486z" stroke="#242424" stroke-width="1" stroke-linecap="round"/><path d="M215.187,114.3788l-4.01942,10.38348l8.03882,4.35436l10.71844,-4.01941l6.95222,-4.50047l2.09145,-14.59172l-13.06308,-1.00486z" stroke="#242424" stroke-width="1" stroke-linecap="round"/><path d="M242.62871,113.68463l-4.01942,10.38348l8.03882,4.35436l10.71844,-4.01941l6.95222,-4.50047l2.09146,-14.59172l-13.06309,-1.00486z" stroke="#242424" stroke-width="1" stroke-linecap="round"/><path d="M231.31317,189.45634l-10.38349,8.37377l-0.93716,6.95932l0.93716,4.42901l15.7427,-6.36407l7.95707,-9.85969l6.11087,-6.5529l-7.36892,-0.66991z" stroke="#242424" stroke-width="1" stroke-linecap="round"/><path d="M302.63346,179.7185l-4.01942,10.38348l8.03882,4.35437l10.71844,-4.01942l6.95222,-4.50047l2.09145,-14.59172l-13.06308,-1.00486z" stroke="#242424" stroke-width="1" stroke-linecap="round"/><path d="M247.34228,200.46119l-7.36892,8.70873l7.03397,4.68932l17.0825,2.34465l2.26291,-8.51989l0.4167,-16.93638l-13.06308,-1.00485z" stroke="#242424" stroke-width="1" stroke-linecap="round"/><path d="M284.16262,217.85438l-8.1863,0.49685l-0.52243,7.54197l10.04853,6.36407l9.71358,-0.66991l3.60271,-11.19949l9.12543,-10.57231l-13.06308,-1.00485z" stroke="#242424" stroke-width="1" stroke-linecap="round"/><path d="M274.08983,189.02433l-0.33495,11.05338l4.68931,9.04368l9.37863,-2.67961l7.95707,-3.83057l-2.26291,-16.93638l-9.71358,-3.34951z" stroke="#242424" stroke-width="1" stroke-linecap="round"/><path d="M229.49283,227.16021l-4.01942,10.38348l8.03882,4.35437l10.71844,-4.01942l6.95222,-4.50047l2.09145,-14.59172l-13.06308,-1.00485z" stroke="#242424" stroke-width="1" stroke-linecap="round"/><path d="M202.33754,220.77188l-4.68932,9.37863l6.02912,4.68931l10.71844,-0.00001l3.60271,-6.84513l5.44096,-12.24707l-13.06308,-1.00485z" stroke="#242424" stroke-width="1" stroke-linecap="round"/><path d="M153.4542,238.45928l-0.26261,12.51234l4.90815,0.1313l10.71844,-1.67476l6.95222,-4.50047l2.09145,-14.59173l-13.06308,-1.00485z" stroke="#242424" stroke-width="1" stroke-linecap="round"/><path d="M304.44905,152.0584l-4.01941,10.38348l8.03882,4.35437l10.71844,-4.01942l6.95222,-4.50047l2.09145,-14.59172l-13.06308,-1.00485z" stroke="#242424" stroke-width="1" stroke-linecap="round"/><path d="M271.79371,159.26222l-0.33495,9.71358l6.36406,7.70388l14.06795,-4.01942l6.61727,-6.17523l-3.60271,-9.56746l-5.86873,-7.44672l-9.87396,2.7574z" stroke="#242424" stroke-width="1" stroke-linecap="round"/><path d="M352.15768,112.34482l-0.33495,9.71358l6.36406,7.70387l14.06795,-4.01941l6.61727,-6.17523l-3.60271,-9.56746l-5.86873,-7.44671l-9.87396,2.7574z" stroke="#242424" stroke-width="1" stroke-linecap="round"/><path d="M335.38586,89.87884l-0.33495,11.05339l6.36406,7.70387l14.06795,-4.01941l6.61727,-6.17523l-3.60271,-8.56261z" stroke="#242424" stroke-width="1" stroke-linecap="round"/><path d="M233.20156,138.42246l0.33495,10.38349l3.01456,7.03397l10.04853,-3.01456l6.95222,-6.84513l-1.92796,-9.90241l-6.20368,-3.4273l-7.5293,-1.26202z" stroke="#242424" stroke-width="1" stroke-linecap="round"/><path d="M332.99268,163.51952l-1.00486,14.4029l9.37863,8.03883l11.38833,-2.00971l9.29688,-8.18493l-6.28232,-8.22765l-3.18912,-8.78652l-10.54387,7.11176z" stroke="#242424" stroke-width="1" stroke-linecap="round"/><path d="M320.24028,197.32531l-0.33495,9.71358l6.36406,7.70388l14.06795,-4.01942l6.61727,-6.17523l-3.60271,-9.56746l-5.86873,-7.44672l-9.87396,2.7574z" stroke="#242424" stroke-width="1" stroke-linecap="round"/><path d="M244.85205,163.47099l-0.33496,9.71358l6.36407,7.70388l14.06794,-4.01942l1.59301,-4.83542l-6.28231,-14.59172l-8.03883,-1.00486z" stroke="#242424" stroke-width="1" stroke-linecap="round"/><path d="M175.49294,205.3156l-0.33495,9.71358l6.36406,7.70388l14.06795,-4.01942l6.61727,-6.17523l-3.60271,-9.56746l-5.86873,-7.44671l-9.87396,2.7574z" stroke="#242424" stroke-width="1" stroke-linecap="round"/><path d="M215.66279,168.44673l-0.33496,9.71358l6.36406,7.70387l14.06795,-4.01941l6.61727,-6.17523l-3.60271,-9.56746l-5.86873,-7.44672l-9.87396,2.7574z" stroke="#242424" stroke-width="1" stroke-linecap="round"/><path d="M301.72092,229.38354l-0.33495,9.71358l6.36406,7.70388l14.06795,-4.01942l6.61727,-6.17523l-3.60271,-9.56746l-5.86873,-7.44672l-9.87396,2.7574z" stroke="#242424" stroke-width="1" stroke-linecap="round"/><path d="M240.6918,89.9759l-4.01942,10.38348l8.03882,4.35437l9.71358,-6.36407l14.32114,-0.48107l-4.27261,-7.89271z" stroke="#242424" stroke-width="1" stroke-linecap="round"/><path d="M153.34239,182.16021l7.95708,-3.83058l2.10624,-6.6022l-2.35944,-4.30506l-7.36892,-4.68932z" stroke="#242424" stroke-width="1" stroke-linecap="round"/><path d="M308.68685,106.72345l0.33495,8.70873l6.36406,4.01941l9.04368,-5.35921l-1.00485,-13.39804l-7.70388,-7.36892l-8.42101,3.30084z" stroke="#242424" stroke-width="1" stroke-linecap="round"/><path d="M329.76449,129.1409l0.33495,8.70873l6.36407,4.01941l9.04368,-5.35922l1.00486,-14.40289l-9.71358,-6.36407l-8.42101,3.30085z" stroke="#242424" stroke-width="1" stroke-linecap="round"/><path d="M361.56057,195.10198l0.33495,8.70872l6.36407,4.01941l9.04368,-5.35921l-1.00485,-13.39804l-7.70387,-7.36892l-8.42101,3.30085z" stroke="#242424" stroke-width="1" stroke-linecap="round"/><path d="M360.53146,233.59707l0.33495,8.70872l6.36406,4.01941l9.04368,-5.35922l-1.00485,-13.39803l-7.70387,-7.36893l-7.25189,5.50151z" stroke="#242424" stroke-width="1" stroke-linecap="round"/><path d="M336.05577,250.65531l19.42715,0.33495l-1.00485,-7.70387l-9.37863,1.3398l-8.92665,-4.54702z" stroke="#242424" stroke-width="1" stroke-linecap="round"/><path d="M336.91503,148.34967l0.33495,5.02427l4.35436,6.02912l4.35437,-4.35437l12.64639,-0.48107l0.08175,-9.23251c0,0 -3.56911,-4.92888 -5.11727,-5.04356c-1.4614,-0.10825 -5.26621,7.05326 -5.26621,7.05326z" stroke="#242424" stroke-width="1" stroke-linecap="round"/><path d="M366.5363,148.83021l3.68446,8.03883l1.00485,11.38834l9.37863,-4.01942l0.16039,-29.88843l-8.53417,2.7574l-1.53839,7.28521z" stroke="#242424" stroke-width="1" stroke-linecap="round"/><path d="M189.92009,239.83982l-3.34951,6.69903l4.68931,4.01941l12.05824,0l10.97163,-3.49562l-0.58815,-9.56746l-14.73784,1.67475z" stroke="#242424" stroke-width="1" stroke-linecap="round"/><path d="M171.454,106.48556l-1.00486,7.70387l-10.04853,9.71358l6.77954,5.76692l11.97771,-2.75236l7.28717,-10.86454l3.09631,-16.26648l-11.05338,-1.3398z" stroke="#242424" stroke-width="1" stroke-linecap="round"/><path d="M285.81311,247.3058l-4.16689,-0.508l-2.53213,3.85751l23.02986,0.18884l-3.26776,-6.21795l-4.68931,-3.68446z" stroke="#242424" stroke-width="1" stroke-linecap="round"/></g></g></svg>