<svg version="1.1" xmlns="http://www.w3.org/2000/svg" xmlns:xlink="http://www.w3.org/1999/xlink" width="39.64832" height="19.08888" viewBox="0,0,39.64832,19.08888"><g transform="translate(-244.64138,-169.65734)"><g data-paper-data="{&quot;isPaintingLayer&quot;:true}" fill-rule="nonzero" stroke-linejoin="miter" stroke-miterlimit="10" stroke-dasharray="" stroke-dashoffset="0" style="mix-blend-mode: normal"><path d="M244.64138,180.70401v-3.3h8.98015v3.3z" fill="#c46b00" stroke="#000000" stroke-width="0" stroke-linecap="butt"/><g stroke="#000000" stroke-width="0" stroke-linecap="butt"><path d="M254.70304,181.66655v-2.41953l29.51593,-0.11111l-2.79726,2.53064z" fill="#a5a5a5"/><path d="M281.49245,176.80359l2.79725,2.41953h-29.51593v-2.41953z" data-paper-data="{&quot;index&quot;:null}" fill="#989898"/></g><g fill="#b8b8b8" stroke="#000000" stroke-width="0" stroke-linecap="butt"><path d="M254.6155,180.56371v-1.32198h27.48481l-2.60477,1.32198z"/><path d="M279.5614,177.90668l2.60476,1.32198h-27.48481v-1.32198z" data-paper-data="{&quot;index&quot;:null}"/></g><path d="M255.77002,187.26265c0,0 -2.79883,-5.53925 -2.79883,-8.31642c0,-2.72171 2.79883,-8.18358 2.79883,-8.18358h2.07086c0,0 -2.81938,1.33301 -2.77263,8.08358c0.03986,5.75613 2.44409,8.41642 2.44409,8.41642z" fill="#cf0000" stroke="#000000" stroke-width="0" stroke-linecap="butt"/><path d="M255.76933,187.49622c0,-0.69036 0.61288,-1.25 1.36893,-1.25c0.75604,0 1.36893,0.55964 1.36893,1.25c0,0.69036 -0.61288,1.25 -1.36893,1.25c-0.75604,0 -1.36893,-0.55964 -1.36893,-1.25z" fill="#cf0000" stroke="none" stroke-width="0" stroke-linecap="butt"/><path d="M255.22177,170.99623c0,-0.69036 0.61288,-1.25 1.36893,-1.25c0.75604,0 1.36893,0.55964 1.36893,1.25c0,0.69036 -0.61288,1.25 -1.36893,1.25c-0.75604,0 -1.36893,-0.55964 -1.36893,-1.25z" fill="#cf0000" stroke="none" stroke-width="0" stroke-linecap="butt"/><path d="M251.82682,180.34622v-2.6" fill="none" stroke="#000000" stroke-width="0.5" stroke-linecap="round"/><path d="M249.74606,177.74623v2.6" fill="none" stroke="#000000" stroke-width="0.5" stroke-linecap="round"/><path d="M247.77481,177.74623v2.6" fill="none" stroke="#000000" stroke-width="0.5" stroke-linecap="round"/><g fill="#ae0000" stroke-width="0" stroke-linecap="butt"><path d="M253.0807,178.85734c0,-2.72171 2.79883,-8.18358 2.79883,-8.18358h2.07086c0,0 -2.81938,1.33302 -2.77262,8.08358c0.01681,2.42715 -0.89678,0.13051 -0.89678,0.13051c0,0 -1.20028,1.57563 -1.20028,-0.03051z" stroke="#000000"/><path d="M255.33127,170.90734c0,-0.69036 0.61288,-1.25 1.36893,-1.25c0.75604,0 1.36893,0.55964 1.36893,1.25c0,0.69036 -0.6129,1.25 -1.36893,1.25c-0.75604,0 -1.36893,-0.55964 -1.36893,-1.25z" stroke="none"/></g></g></g></svg>