<svg version="1.1" xmlns="http://www.w3.org/2000/svg" xmlns:xlink="http://www.w3.org/1999/xlink" width="19.83333" height="239.66667" viewBox="0,0,19.83333,239.66667"><g transform="translate(-156.5,-71.33332)"><g data-paper-data="{&quot;isPaintingLayer&quot;:true}" fill-rule="nonzero" stroke-linejoin="miter" stroke-miterlimit="10" stroke-dasharray="" stroke-dashoffset="0" style="mix-blend-mode: normal"><path d="M156.5,310.99999v-239.66667h19.83333v239.66667z" fill="#615732" stroke="none" stroke-width="0" stroke-linecap="butt"/><path d="M159.80556,116.55875v9.43835" fill="none" stroke="#3c361f" stroke-width="0.5" stroke-linecap="round"/><path d="M167.66742,95.65955v10.4496" fill="none" stroke="#3c361f" stroke-width="0.5" stroke-linecap="round"/><path d="M159.80556,88.2437v17.52836" fill="none" stroke="#3c361f" stroke-width="0.5" stroke-linecap="round"/><path d="M166.23799,118.58125v10.78669" fill="none" stroke="#3c361f" stroke-width="0.5" stroke-linecap="round"/><path d="M168.38213,83.18744v6.40459" fill="none" stroke="#3c361f" stroke-width="0.5" stroke-linecap="round"/><path d="M173.02778,81.50202v8.09001" fill="none" stroke="#3c361f" stroke-width="0.5" stroke-linecap="round"/><path d="M163.73649,74.76034v5.73043" fill="none" stroke="#3c361f" stroke-width="0.5" stroke-linecap="round"/><path d="M162.66441,135.43545v6.40459" fill="none" stroke="#3c361f" stroke-width="0.5" stroke-linecap="round"/><path d="M171.95571,126.67127v9.43835" fill="none" stroke="#3c361f" stroke-width="0.5" stroke-linecap="round"/><path d="M172.67042,108.46874v6.40459" fill="none" stroke="#3c361f" stroke-width="0.5" stroke-linecap="round"/><path d="M165.88063,150.94131c0,2.234 -0.71997,4.04501 -1.60811,4.04501c-0.88813,0 -1.60811,-1.81101 -1.60811,-4.04501c0,-2.234 0.71997,-4.04501 1.60811,-4.04501c0.88813,0 1.60811,1.81101 1.60811,4.04501z" fill="#3c361f" stroke="#3c361f" stroke-width="0.5" stroke-linecap="butt"/><path d="M171.95571,149.25589v8.09001" fill="none" stroke="#3c361f" stroke-width="0.5" stroke-linecap="round"/><path d="M161.23498,162.06508v7.75293" fill="none" stroke="#3c361f" stroke-width="0.5" stroke-linecap="round"/><path d="M167.66742,179.93053v8.76418" fill="none" stroke="#3c361f" stroke-width="0.5" stroke-linecap="round"/><path d="M171.95571,165.09884v5.39334" fill="none" stroke="#3c361f" stroke-width="0.5" stroke-linecap="round"/><path d="M160.87763,208.58266v7.41585" fill="none" stroke="#3c361f" stroke-width="0.5" stroke-linecap="round"/><path d="M171.95571,206.22307v7.41585" fill="none" stroke="#3c361f" stroke-width="0.5" stroke-linecap="round"/><path d="M159.80556,187.34637v10.11252" fill="none" stroke="#3c361f" stroke-width="0.5" stroke-linecap="round"/><path d="M173.38514,185.32387v8.76418" fill="none" stroke="#3c361f" stroke-width="0.5" stroke-linecap="round"/><path d="M166.9527,196.44764v13.82044" fill="none" stroke="#3c361f" stroke-width="0.5" stroke-linecap="round"/><path d="M169.81156,220.21206v9.77543" fill="none" stroke="#3c361f" stroke-width="0.5" stroke-linecap="round"/><path d="M166.23799,222.90873v6.06751" fill="none" stroke="#3c361f" stroke-width="0.5" stroke-linecap="round"/><path d="M160.52027,235.38084v9.43835" fill="none" stroke="#3c361f" stroke-width="0.5" stroke-linecap="round"/><path d="M171.24099,247.51586v10.78669" fill="none" stroke="#3c361f" stroke-width="0.5" stroke-linecap="round"/><path d="M162.30706,251.56087v13.14627" fill="none" stroke="#3c361f" stroke-width="0.5" stroke-linecap="round"/><path d="M167.66742,239.76293v7.07876" fill="none" stroke="#3c361f" stroke-width="0.5" stroke-linecap="round"/><path d="M171.59835,235.71792v7.07876" fill="none" stroke="#3c361f" stroke-width="0.5" stroke-linecap="round"/><path d="M164.80856,272.46007v16.51711" fill="none" stroke="#3c361f" stroke-width="0.5" stroke-linecap="round"/><path d="M170.52628,267.40381v9.77543" fill="none" stroke="#3c361f" stroke-width="0.5" stroke-linecap="round"/><path d="M169.81156,290.32552v6.06751" fill="none" stroke="#3c361f" stroke-width="0.5" stroke-linecap="round"/><path d="M161.23498,285.94343v7.41585" fill="none" stroke="#3c361f" stroke-width="0.5" stroke-linecap="round"/><path d="M166.9527,263.02172v4.71917" fill="none" stroke="#3c361f" stroke-width="0.5" stroke-linecap="round"/><path d="M159.80556,269.42631v10.4496" fill="none" stroke="#3c361f" stroke-width="0.5" stroke-linecap="round"/><path d="M164.4512,175.71698v19.21378" fill="none" stroke="#3c361f" stroke-width="0.5" stroke-linecap="round"/><path d="M162.66441,223.24582v3.37084" fill="none" stroke="#3c361f" stroke-width="0.5" stroke-linecap="round"/><path d="M166.23799,299.42678v6.74168" fill="none" stroke="#3c361f" stroke-width="0.5" stroke-linecap="round"/><path d="M159.80556,301.78637v4.71917" fill="none" stroke="#3c361f" stroke-width="0.5" stroke-linecap="round"/><path d="M170.52628,301.44929v4.71917" fill="none" stroke="#3c361f" stroke-width="0.5" stroke-linecap="round"/><path d="M158.73348,76.27723c0,-1.117 0.95997,-2.0225 2.14414,-2.0225c1.18418,0 2.14414,0.90551 2.14414,2.0225c0,1.117 -0.95997,2.0225 -2.14414,2.0225c-1.18418,0 -2.14414,-0.90551 -2.14414,-2.0225z" fill="#747474" stroke="none" stroke-width="0" stroke-linecap="butt"/><path d="M168.73949,76.27723c0,-1.117 0.95997,-2.0225 2.14414,-2.0225c1.18418,0 2.14414,0.90551 2.14414,2.0225c0,1.117 -0.95997,2.0225 -2.14414,2.0225c-1.18418,0 -2.14414,-0.90551 -2.14414,-2.0225z" fill="#747474" stroke="none" stroke-width="0" stroke-linecap="butt"/><path d="M159.09084,305.49429c0,-1.117 0.95997,-2.0225 2.14414,-2.0225c1.18418,0 2.14414,0.90551 2.14414,2.0225c0,1.117 -0.95997,2.0225 -2.14414,2.0225c-1.18418,0 -2.14414,-0.90551 -2.14414,-2.0225z" fill="#747474" stroke="none" stroke-width="0" stroke-linecap="butt"/><path d="M169.09685,305.49429c0,-1.117 0.95997,-2.0225 2.14414,-2.0225c1.18418,0 2.14414,0.90551 2.14414,2.0225c0,1.117 -0.95997,2.0225 -2.14414,2.0225c-1.18418,0 -2.14414,-0.90551 -2.14414,-2.0225z" fill="#747474" stroke="none" stroke-width="0" stroke-linecap="butt"/></g></g></svg>